<?xml version="1.0" encoding="UTF-8" standalone="no"?>
<svg
   xmlns:dc="http://purl.org/dc/elements/1.1/"
   xmlns:cc="http://creativecommons.org/ns#"
   xmlns:rdf="http://www.w3.org/1999/02/22-rdf-syntax-ns#"
   xmlns:svg="http://www.w3.org/2000/svg"
   xmlns="http://www.w3.org/2000/svg"
   xmlns:sodipodi="http://sodipodi.sourceforge.net/DTD/sodipodi-0.dtd"
   xmlns:inkscape="http://www.inkscape.org/namespaces/inkscape"
   inkscape:export-ydpi="192"
   inkscape:export-xdpi="192"
   inkscape:export-filename="C:\Users\Matthias\AppData\Roaming\Factorio\mods\jump-and-swing_0.1.0\graphics\source\hook-icon-onehanded.png"
   width="128"
   height="128"
   viewBox="0 0 33.866666 33.866668"
   version="1.1"
   id="svg8"
   inkscape:version="1.0 (4035a4fb49, 2020-05-01)"
   sodipodi:docname="hook-icon-lefthand.svg">
  <defs
     id="defs2">
    <marker
       inkscape:isstock="true"
       style="overflow:visible"
       id="marker1199"
       refX="0"
       refY="0"
       orient="auto"
       inkscape:stockid="Arrow1Lstart">
      <path
         transform="matrix(0.8,0,0,0.8,10,0)"
         style="fill:#000000;fill-opacity:1;fill-rule:evenodd;stroke:#000000;stroke-width:1pt;stroke-opacity:1"
         d="M 0,0 5,-5 -12.5,0 5,5 Z"
         id="path1197" />
    </marker>
    <marker
       inkscape:isstock="true"
       style="overflow:visible"
       id="marker1189"
       refX="0"
       refY="0"
       orient="auto"
       inkscape:stockid="Arrow1Lstart">
      <path
         transform="matrix(0.8,0,0,0.8,10,0)"
         style="fill:#000000;fill-opacity:1;fill-rule:evenodd;stroke:#000000;stroke-width:1pt;stroke-opacity:1"
         d="M 0,0 5,-5 -12.5,0 5,5 Z"
         id="path1187" />
    </marker>
    <marker
       inkscape:isstock="true"
       style="overflow:visible"
       id="marker1179"
       refX="0"
       refY="0"
       orient="auto"
       inkscape:stockid="Arrow1Lstart">
      <path
         transform="matrix(0.8,0,0,0.8,10,0)"
         style="fill:#000000;fill-opacity:1;fill-rule:evenodd;stroke:#000000;stroke-width:1pt;stroke-opacity:1"
         d="M 0,0 5,-5 -12.5,0 5,5 Z"
         id="path1177" />
    </marker>
  </defs>
  <sodipodi:namedview
     units="px"
     id="base"
     pagecolor="#ffffff"
     bordercolor="#666666"
     borderopacity="1.0"
     inkscape:pageopacity="0.0"
     inkscape:pageshadow="2"
     inkscape:zoom="3.959798"
     inkscape:cx="69.744375"
     inkscape:cy="84.051686"
     inkscape:document-units="mm"
     inkscape:current-layer="layer1"
     inkscape:document-rotation="0"
     showgrid="false"
     inkscape:window-width="1375"
     inkscape:window-height="1040"
     inkscape:window-x="186"
     inkscape:window-y="0"
     inkscape:window-maximized="0"
     showguides="false" />
  <metadata
     id="metadata5">
    <rdf:RDF>
      <cc:Work
         rdf:about="">
        <dc:format>image/svg+xml</dc:format>
        <dc:type
           rdf:resource="http://purl.org/dc/dcmitype/StillImage" />
        <dc:title />
      </cc:Work>
    </rdf:RDF>
  </metadata>
  <g
     inkscape:label="Layer 1"
     inkscape:groupmode="layer"
     id="layer1">
    <path
       style="fill:#000000;fill-opacity:1;stroke:none;stroke-width:0.047259px;stroke-linecap:butt;stroke-linejoin:miter;stroke-opacity:1"
       d="M 7.9101799,13.619282 8.1384169,10.195253 8.3889296,6.4370468 6.4688772,5.8372566 5.141762,5.9390121 6.9977602,4.5911858 10.632026,5.8297321 10.4745,7.0885409 9.2141334,6.7292468 8.9873507,10.386853 8.7660852,13.955494 C 8.4781371,14.009743 8.1899518,14.07879 7.9101799,13.619282 Z"
       id="path887"
       sodipodi:nodetypes="cccccccccccc" />
    <circle
       style="fill:#000000;stroke-width:0.0431795;stroke-linecap:round;stroke-linejoin:round;stroke-dasharray:0.0431795, 0.518155"
       id="path863"
       cx="17.153301"
       cy="8.5638218"
       r="2.9377546"
       transform="rotate(5.6284732)" />
    <path
       id="path869"
       style="fill:#000000;fill-opacity:1;stroke:none;stroke-width:0.060629px;stroke-linecap:butt;stroke-linejoin:miter;stroke-opacity:1"
       d="m 18.00985,21.750315 0.03359,3.287138 -2.134237,0.552938 c -0.08205,0.260401 -0.189632,0.516184 -0.35295,0.74724 -0.197374,0.279243 -0.482604,0.45508 -0.735872,0.609782 -0.386846,0.236297 -0.807988,0.352624 -1.178223,0.513149 -0.566147,0.245467 -1.132446,0.490892 -1.698604,0.736388 0.335272,0.40354 0.981335,0.767395 0.981335,0.767395 l 3.792534,-1.106392 2.96571,-0.998389 c 0,0 0.429668,-0.254006 0.538986,-0.464572 0.07986,-0.154567 0.175183,-0.54777 0.175183,-0.54777 l 0.189135,-3.742924 z"
       sodipodi:nodetypes="cccssscccccccc" />
    <path
       style="fill:#000000;fill-opacity:1;stroke:none;stroke-width:0.060629px;stroke-linecap:butt;stroke-linejoin:miter;stroke-opacity:1"
       d="m 14.326515,14.999554 c 0,0 -1.825277,-0.965331 -2.868168,-1.520429 C 10.178342,12.797818 9.9045641,12.802924 8.4738171,12.567221 8.1174426,12.508511 7.7694666,12.554941 7.3921258,12.504141 7.0176926,12.453711 6.784766,12.210475 6.7854882,11.648316 c 7.104e-4,-0.545078 0.3232961,-0.786301 0.6818434,-0.790382 0.564925,-0.0065 1.1300405,0.01911 1.6884935,0.149517 1.1623809,0.271411 1.1415709,0.4123 2.3208139,0.865378 0.59336,0.227979 2.443234,1.257914 2.443234,1.257914 l 0.240485,0.63953 z"
       id="path871"
       sodipodi:nodetypes="csssssssccc" />
    <path
       id="path883"
       style="color:#000000;font-style:normal;font-variant:normal;font-weight:normal;font-stretch:normal;font-size:medium;line-height:normal;font-family:sans-serif;font-variant-ligatures:normal;font-variant-position:normal;font-variant-caps:normal;font-variant-numeric:normal;font-variant-alternates:normal;font-variant-east-asian:normal;font-feature-settings:normal;font-variation-settings:normal;text-indent:0;text-align:start;text-decoration:none;text-decoration-line:none;text-decoration-style:solid;text-decoration-color:#000000;letter-spacing:normal;word-spacing:normal;text-transform:none;writing-mode:lr-tb;direction:ltr;text-orientation:mixed;dominant-baseline:auto;baseline-shift:baseline;text-anchor:start;white-space:normal;shape-padding:0;shape-margin:0;inline-size:0;clip-rule:nonzero;display:inline;overflow:visible;visibility:visible;isolation:auto;mix-blend-mode:normal;color-interpolation:sRGB;color-interpolation-filters:linearRGB;solid-color:#000000;solid-opacity:1;vector-effect:none;fill:#000000;fill-opacity:1;fill-rule:nonzero;stroke:none;stroke-width:0.358619;stroke-linecap:butt;stroke-linejoin:miter;stroke-miterlimit:4;stroke-dasharray:none;stroke-dashoffset:0;stroke-opacity:1;color-rendering:auto;image-rendering:auto;shape-rendering:auto;text-rendering:auto;enable-background:accumulate;stop-color:#000000"
       d="m 13.960824,21.364749 -0.951703,3.504239 -2.190047,1.030945 -1.6706989,0.787032 c -0.315297,0.148474 -0.624928,0.197215 -0.784449,0.357601 -0.2080297,0.209161 -0.3718856,0.511095 -0.3663855,0.770495 0.00647,0.307573 0.2082962,0.653468 0.4599205,0.876948 0.207739,0.184505 0.517716,0.304041 0.790132,0.297141 0.310289,-0.0079 0.626076,-0.285618 1.0340459,-0.462505 1.072699,-0.465095 2.145192,-0.930167 3.217891,-1.395264 0.400675,-0.173721 0.804082,-0.288187 1.134298,-0.489892 0.249122,-0.152167 0.486999,-0.309587 0.629419,-0.51108 0.255016,-0.360789 0.369331,-0.838082 0.471289,-1.315165 0.234675,-1.098092 0.568883,-3.085914 0.612882,-3.346049 z"
       sodipodi:nodetypes="ccccscssssssscc" />
    <path
       style="fill:#000000;fill-opacity:1;stroke:none;stroke-width:0.0641368px;stroke-linecap:butt;stroke-linejoin:miter;stroke-opacity:1"
       d="m 13.919873,13.130735 c 0,0 0.646765,3.66255 0.560073,5.342576 -0.04782,0.926629 -0.519121,2.891438 -0.519121,2.891438 l 6.625418,0.739492 c 0,0 -0.08158,-3.393911 -0.383046,-5.057465 -0.264736,-1.460842 -1.243516,-4.276798 -1.243516,-4.276798 -1.323445,0.496973 -2.203794,1.050538 -5.039808,0.360757 z"
       id="path861"
       sodipodi:nodetypes="csccscc" />
    <path
       style="fill:#000000;fill-opacity:1;stroke:none;stroke-width:0.060629px;stroke-linecap:butt;stroke-linejoin:miter;stroke-opacity:1"
       d="M 10.4745,7.0885409 10.859356,6.8039418 10.995042,5.511124 7.1983093,4.2632814 5.4227036,5.5693067 5.1417634,5.9390134 6.4688787,5.837258 Z"
       id="path899"
       sodipodi:nodetypes="cccccccc" />
    <path
       id="circle1303"
       style="fill:#000000;stroke-width:0.0520357;stroke-linecap:round;stroke-linejoin:round;stroke-dasharray:0.0520357, 0.62443"
       d="m 16.783071,6.615675 c -1.80045,-0.2979286 -3.532372,0.8215508 -4.000038,2.5855429 -0.160537,0.605537 -0.157524,1.2428261 0.0088,1.8468151 L 16.367834,10.039554 19.49677,8.8048443 C 19.083044,7.7603655 18.198172,6.9742273 17.112242,6.6864087 17.003703,6.6576276 16.893853,6.6340252 16.783069,6.6156841 Z"
       inkscape:transform-center-x="0.24874452"
       inkscape:transform-center-y="-1.2667854"
       sodipodi:nodetypes="cscccccc" />
    <path
       style="fill:none;stroke:#000000;stroke-width:0.319;stroke-linecap:round;stroke-linejoin:miter;stroke-miterlimit:4;stroke-dasharray:none;stroke-opacity:1"
       d="m 0.46099851,19.791004 c 0,0 3.70137609,1.369977 5.59222119,1.458112 2.0366064,0.09493 6.4094453,-1.434778 6.4094453,-1.434778"
       id="path1317"
       sodipodi:nodetypes="csc" />
    <path
       style="fill:none;stroke:#000000;stroke-width:0.319;stroke-linecap:round;stroke-linejoin:miter;stroke-miterlimit:4;stroke-dasharray:none;stroke-opacity:1"
       d="m 1.7168094,18.804325 c 0,0 3.0525115,0.81328 4.4878855,0.725488 1.8302715,-0.111943 4.5842631,-0.994596 4.5842631,-0.994596"
       id="path1319"
       sodipodi:nodetypes="csc" />
    <path
       style="fill:none;stroke:#000000;stroke-width:0.319;stroke-linecap:round;stroke-linejoin:miter;stroke-miterlimit:4;stroke-dasharray:none;stroke-opacity:1"
       d="m 2.1468789,22.009389 c 0,0 2.9712239,1.048743 4.5051048,1.048773 1.8399634,3.3e-5 3.9731463,-0.70292 3.9731463,-0.70292"
       id="path1321"
       sodipodi:nodetypes="csc" />
    <path
       sodipodi:nodetypes="ccccc"
       d="m 13.927323,17.323971 h 6.726996 l 0.100924,2.047975 -6.82792,0.04079 z"
       style="opacity:1;fill:#000000;fill-opacity:1;stroke:none;stroke-width:0.323605;stroke-linecap:round;stroke-linejoin:round;stroke-dasharray:0.323605, 3.88327"
       id="rect886" />
    <path
       id="rect888"
       style="opacity:1;fill:#000000;fill-opacity:1;stroke:none;stroke-width:0.380764;stroke-linecap:round;stroke-linejoin:round;stroke-dasharray:0.380764, 4.56918"
       d="M 20.466029,18.863252 C 28.500817,17.586779 33.979914,14.176824 39.914974,9.0364376 V 7.980535 C 31.468151,14.26876 28.23445,16.464057 20.466029,17.807349 Z"
       sodipodi:nodetypes="ccccc" />
    <path
       style="fill:#000000;fill-opacity:1;stroke:none;stroke-width:0.264583px;stroke-linecap:butt;stroke-linejoin:miter;stroke-opacity:1"
       d="m 18.959681,12.769979 4.247562,3.519437 0.298151,0.247042 0.806248,0.618365 c 0,0 0.164951,0.15758 0.231261,0.25116 0.108217,0.152719 0.188683,0.327506 0.141318,0.508587 -0.06556,0.250635 -0.252132,0.425331 -0.497349,0.508903 -0.163442,0.0557 -0.347126,-0.01445 -0.507762,-0.07779 -0.108646,-0.04284 -0.283969,-0.182898 -0.283969,-0.182898 l -1.59064,-1.248351 -0.241602,-0.175707 -2.776436,-2.019177 z"
       id="path868"
       sodipodi:nodetypes="ccccssssccccc" />
  </g>
</svg>
