<?xml version="1.0" encoding="UTF-8" standalone="no"?>
<svg
   xmlns:dc="http://purl.org/dc/elements/1.1/"
   xmlns:cc="http://creativecommons.org/ns#"
   xmlns:rdf="http://www.w3.org/1999/02/22-rdf-syntax-ns#"
   xmlns:svg="http://www.w3.org/2000/svg"
   xmlns="http://www.w3.org/2000/svg"
   xmlns:sodipodi="http://sodipodi.sourceforge.net/DTD/sodipodi-0.dtd"
   xmlns:inkscape="http://www.inkscape.org/namespaces/inkscape"
   sodipodi:docname="hook-icon-righthand.svg"
   inkscape:version="1.0 (4035a4fb49, 2020-05-01)"
   id="svg8"
   version="1.1"
   viewBox="0 0 33.866666 33.866668"
   height="128"
   width="128"
   inkscape:export-filename="C:\Users\Matthias\AppData\Roaming\Factorio\mods\jump-and-swing_0.1.0\graphics\source\hook-icon-onehanded.png"
   inkscape:export-xdpi="192"
   inkscape:export-ydpi="192">
  <defs
     id="defs2">
    <marker
       inkscape:stockid="Arrow1Lstart"
       orient="auto"
       refY="0"
       refX="0"
       id="marker1199"
       style="overflow:visible"
       inkscape:isstock="true">
      <path
         id="path1197"
         d="M 0,0 5,-5 -12.5,0 5,5 Z"
         style="fill:#000000;fill-opacity:1;fill-rule:evenodd;stroke:#000000;stroke-width:1pt;stroke-opacity:1"
         transform="matrix(0.8,0,0,0.8,10,0)" />
    </marker>
    <marker
       inkscape:stockid="Arrow1Lstart"
       orient="auto"
       refY="0"
       refX="0"
       id="marker1189"
       style="overflow:visible"
       inkscape:isstock="true">
      <path
         id="path1187"
         d="M 0,0 5,-5 -12.5,0 5,5 Z"
         style="fill:#000000;fill-opacity:1;fill-rule:evenodd;stroke:#000000;stroke-width:1pt;stroke-opacity:1"
         transform="matrix(0.8,0,0,0.8,10,0)" />
    </marker>
    <marker
       inkscape:stockid="Arrow1Lstart"
       orient="auto"
       refY="0"
       refX="0"
       id="marker1179"
       style="overflow:visible"
       inkscape:isstock="true">
      <path
         id="path1177"
         d="M 0,0 5,-5 -12.5,0 5,5 Z"
         style="fill:#000000;fill-opacity:1;fill-rule:evenodd;stroke:#000000;stroke-width:1pt;stroke-opacity:1"
         transform="matrix(0.8,0,0,0.8,10,0)" />
    </marker>
  </defs>
  <sodipodi:namedview
     showguides="false"
     inkscape:window-maximized="0"
     inkscape:window-y="0"
     inkscape:window-x="186"
     inkscape:window-height="1040"
     inkscape:window-width="1375"
     showgrid="false"
     inkscape:document-rotation="0"
     inkscape:current-layer="layer1"
     inkscape:document-units="mm"
     inkscape:cy="63.807793"
     inkscape:cx="53.875873"
     inkscape:zoom="5.6"
     inkscape:pageshadow="2"
     inkscape:pageopacity="0.0"
     borderopacity="1.0"
     bordercolor="#666666"
     pagecolor="#ffffff"
     id="base"
     units="px" />
  <metadata
     id="metadata5">
    <rdf:RDF>
      <cc:Work
         rdf:about="">
        <dc:format>image/svg+xml</dc:format>
        <dc:type
           rdf:resource="http://purl.org/dc/dcmitype/StillImage" />
        <dc:title />
      </cc:Work>
    </rdf:RDF>
  </metadata>
  <g
     id="layer1"
     inkscape:groupmode="layer"
     inkscape:label="Layer 1">
    <circle
       transform="rotate(5.6284732)"
       r="2.9377546"
       cy="9.5354977"
       cx="17.726618"
       id="path863"
       style="fill:#000000;stroke-width:0.0431795;stroke-linecap:round;stroke-linejoin:round;stroke-dasharray:0.0431795, 0.518155" />
    <path
       sodipodi:nodetypes="cccssscccccccc"
       d="m 18.167227,22.773537 0.03359,3.287138 -2.134237,0.552938 c -0.08205,0.260401 -0.189632,0.516184 -0.35295,0.74724 -0.197374,0.279243 -0.482604,0.45508 -0.735872,0.609782 -0.386846,0.236297 -0.807988,0.352624 -1.178223,0.513149 -0.566147,0.245467 -1.132446,0.490892 -1.698604,0.736388 0.335272,0.40354 0.981335,0.767395 0.981335,0.767395 l 3.792534,-1.106392 2.96571,-0.998389 c 0,0 0.429668,-0.254006 0.538986,-0.464572 0.07986,-0.154567 0.175183,-0.54777 0.175183,-0.54777 l 0.189135,-3.742924 z"
       style="fill:#000000;fill-opacity:1;stroke:none;stroke-width:0.060629px;stroke-linecap:butt;stroke-linejoin:miter;stroke-opacity:1"
       id="path869" />
    <path
       sodipodi:nodetypes="ccccscssssssscc"
       d="m 14.118201,22.387971 -0.951703,3.504239 -2.190047,1.030945 -1.6706986,0.787032 c -0.315297,0.148474 -0.624928,0.197215 -0.784449,0.357601 -0.20803,0.209161 -0.371885,0.511095 -0.366385,0.770495 0.0065,0.307573 0.208296,0.653468 0.45992,0.876948 0.207739,0.184505 0.517716,0.304041 0.790132,0.297141 0.310289,-0.0079 0.6260756,-0.285618 1.0340456,-0.462505 1.072699,-0.465095 2.145192,-0.930167 3.217891,-1.395264 0.400675,-0.173721 0.804082,-0.288187 1.134298,-0.489892 0.249122,-0.152167 0.486999,-0.309587 0.629419,-0.51108 0.255016,-0.360789 0.369331,-0.838082 0.471289,-1.315165 0.234675,-1.098092 0.568883,-3.085914 0.612882,-3.346049 z"
       style="color:#000000;font-style:normal;font-variant:normal;font-weight:normal;font-stretch:normal;font-size:medium;line-height:normal;font-family:sans-serif;font-variant-ligatures:normal;font-variant-position:normal;font-variant-caps:normal;font-variant-numeric:normal;font-variant-alternates:normal;font-variant-east-asian:normal;font-feature-settings:normal;font-variation-settings:normal;text-indent:0;text-align:start;text-decoration:none;text-decoration-line:none;text-decoration-style:solid;text-decoration-color:#000000;letter-spacing:normal;word-spacing:normal;text-transform:none;writing-mode:lr-tb;direction:ltr;text-orientation:mixed;dominant-baseline:auto;baseline-shift:baseline;text-anchor:start;white-space:normal;shape-padding:0;shape-margin:0;inline-size:0;clip-rule:nonzero;display:inline;overflow:visible;visibility:visible;isolation:auto;mix-blend-mode:normal;color-interpolation:sRGB;color-interpolation-filters:linearRGB;solid-color:#000000;solid-opacity:1;vector-effect:none;fill:#000000;fill-opacity:1;fill-rule:nonzero;stroke:none;stroke-width:0.358619;stroke-linecap:butt;stroke-linejoin:miter;stroke-miterlimit:4;stroke-dasharray:none;stroke-dashoffset:0;stroke-opacity:1;color-rendering:auto;image-rendering:auto;shape-rendering:auto;text-rendering:auto;enable-background:accumulate;stop-color:#000000"
       id="path883" />
    <path
       transform="scale(0.26458333)"
       d="M 72.253906 52.130859 C 67.251909 54.009183 63.923871 56.10314 53.205078 53.496094 C 53.205078 53.496094 53.998442 58.094037 54.617188 63.179688 C 54.620929 63.183411 54.685547 63.248047 54.685547 63.248047 C 54.685547 63.248047 62.612887 70.204867 67.414062 72.134766 C 70.035742 73.188588 75.374893 73.798199 79.433594 74.1875 L 79.193359 69.34375 L 77.107422 69.34375 C 77.054692 69.000244 77.00992 68.610281 76.953125 68.296875 C 75.952548 62.775582 72.253906 52.130859 72.253906 52.130859 z M 54.832031 65.017578 C 54.9918 66.487381 55.134115 67.961241 55.222656 69.34375 L 52.876953 69.34375 L 52.876953 77.238281 L 54.873047 77.226562 C 54.289275 80.7094 53.359375 84.615234 53.359375 84.615234 L 78.400391 87.410156 C 78.400391 87.410156 78.279412 82.391865 77.910156 77.09375 L 79.576172 77.083984 L 79.488281 75.308594 C 78.893002 75.269723 78.242849 75.228208 77.945312 75.195312 C 74.255813 74.787358 69.91545 74.493887 66.947266 73.300781 C 64.28395 72.230226 61.10384 69.97044 58.486328 67.962891 C 56.823983 66.687926 55.644901 65.706596 54.832031 65.017578 z "
       style="fill:#000000;fill-opacity:1;stroke:none;stroke-width:0.242407px;stroke-linecap:butt;stroke-linejoin:miter;stroke-opacity:1"
       id="path861" />
    <path
       sodipodi:nodetypes="cscccccc"
       inkscape:transform-center-y="-1.2667854"
       inkscape:transform-center-x="0.24874452"
       d="m 17.258322,7.6388969 c -1.80045,-0.2979286 -3.532372,0.8215508 -4.000038,2.5855431 -0.160537,0.605537 -0.157524,1.242826 0.0088,1.846815 l 3.576001,-1.008479 3.128936,-1.2347098 C 19.558295,8.7835874 18.673423,7.9974492 17.587493,7.7096306 17.478954,7.6808495 17.369104,7.6572471 17.25832,7.638906 Z"
       style="fill:#000000;stroke-width:0.0520357;stroke-linecap:round;stroke-linejoin:round;stroke-dasharray:0.0520357, 0.62443"
       id="circle1303" />
    <path
       sodipodi:nodetypes="csc"
       id="path1317"
       d="m 0.46615438,19.802678 c 0,0 3.70137612,0.927676 5.59222102,0.987357 2.036607,0.06428 6.4094456,-0.971556 6.4094456,-0.971556"
       style="fill:none;stroke:#000000;stroke-width:0.281;stroke-linecap:round;stroke-linejoin:miter;stroke-miterlimit:4;stroke-dasharray:none;stroke-opacity:1" />
    <path
       sodipodi:nodetypes="csc"
       id="path1319"
       d="m 1.1804444,18.971544 c 0,0 3.0525111,0.55071 4.487885,0.491262 1.830272,-0.0758 4.5842626,-0.673488 4.5842626,-0.673488"
       style="fill:none;stroke:#000000;stroke-width:0.281;stroke-linecap:round;stroke-linejoin:miter;stroke-miterlimit:4;stroke-dasharray:none;stroke-opacity:1" />
    <path
       sodipodi:nodetypes="csc"
       id="path1321"
       d="m 1.8179483,21.546347 c 0,0 2.971223,0.710154 4.505104,0.710174 1.839964,2.2e-5 3.9731467,-0.47598 3.9731467,-0.47598"
       style="fill:none;stroke:#000000;stroke-width:0.281;stroke-linecap:round;stroke-linejoin:miter;stroke-miterlimit:4;stroke-dasharray:none;stroke-opacity:1" />
    <path
       transform="scale(0.26458333)"
       d="M 150.87695 41.806641 C 116.66136 62.137562 103.64498 69.123212 73.916016 71.130859 L 73.666016 73.517578 C 76.578126 73.933233 79.651597 74.212824 81.814453 74.410156 C 108.28815 71.415988 128.39135 61.200801 150.46289 45.775391 L 150.87695 41.806641 z M 73.542969 74.708984 L 73.501953 75.099609 C 74.239457 75.059925 74.967776 75.010994 75.695312 74.960938 C 74.976831 74.886204 74.265917 74.796106 73.542969 74.708984 z "
       style="opacity:1;fill:#000000;fill-opacity:1;stroke:none;stroke-width:1.43911;stroke-linecap:round;stroke-linejoin:round;stroke-dasharray:1.43911, 17.2693"
       id="rect888" />
    <path
       sodipodi:nodetypes="sssscccsssscccs"
       id="path870"
       d="m 14.07725,14.153957 c -0.198968,-0.005 -0.428058,0.03247 -0.572589,0.169302 -0.217156,0.205596 -0.349817,0.550091 -0.301007,0.845123 0.0512,0.309509 0.288915,0.554477 0.501807,0.784899 0.255145,0.276154 0.763598,0.781215 0.763598,0.781215 l 3.367777,2.351142 4.573464,0.714282 c 0,0 0.315619,0.04533 0.470317,0.01912 0.13327,-0.02258 0.279381,-0.05566 0.377137,-0.149006 0.116199,-0.110964 0.195197,-0.279002 0.197586,-0.439655 0.0026,-0.171904 -0.07812,-0.352655 -0.197341,-0.476523 -0.150094,-0.155942 -0.589983,-0.271174 -0.589983,-0.271174 L 18.452462,17.67195 16.575717,15.031964 c 0,0 -1.615997,-0.855742 -2.498467,-0.878007 z"
       style="fill:#000000;fill-opacity:1;stroke:none;stroke-width:0.264583px;stroke-linecap:butt;stroke-linejoin:miter;stroke-opacity:1" />
    <g
       transform="matrix(0.66448432,0.74730221,0.74730221,-0.66448432,0.5375453,9.4681129)"
       id="g886">
      <path
         sodipodi:nodetypes="cccccccccccc"
         id="path872"
         d="m 18.804084,15.105346 -2.705543,2.110949 -2.969598,2.316973 0.831881,1.831481 0.960036,0.921911 -2.241652,-0.486171 -1.497569,-3.535416 1.04371,-0.721169 0.571736,1.179294 2.878766,-2.267647 2.808742,-2.212491 c 0.232295,0.178596 0.475778,0.347516 0.319491,0.862286 z"
         style="fill:#000000;fill-opacity:1;stroke:none;stroke-width:0.047259px;stroke-linecap:butt;stroke-linejoin:miter;stroke-opacity:1" />
      <path
         sodipodi:nodetypes="cccccccc"
         id="path874"
         d="m 12.225349,17.543904 -0.46864,-0.0974 -1.054522,0.760113 1.598874,3.66277 2.15692,0.454066 0.462879,-0.03679 -0.960035,-0.92191 z"
         style="fill:#000000;fill-opacity:1;stroke:none;stroke-width:0.060629px;stroke-linecap:butt;stroke-linejoin:miter;stroke-opacity:1" />
    </g>
    <path
       sodipodi:nodetypes="ccsssccc"
       id="path875"
       d="m 19.628922,15.412043 5.156103,-3.380497 c 0,0 0.511939,-0.189181 0.583113,-0.417371 0.106372,-0.341012 -0.0657,-0.809467 -0.362306,-1.008548 -0.253448,-0.170118 -0.628121,-0.06471 -0.914867,0.03994 -0.184325,0.06727 -0.46638,0.359165 -0.46638,0.359165 l -4.507527,2.788465 z"
       style="fill:#000000;fill-opacity:1;stroke:none;stroke-width:0.060629px;stroke-linecap:butt;stroke-linejoin:miter;stroke-opacity:1" />
  </g>
</svg>
