<?xml version="1.0" encoding="UTF-8" standalone="no"?>
<svg
   xmlns:dc="http://purl.org/dc/elements/1.1/"
   xmlns:cc="http://creativecommons.org/ns#"
   xmlns:rdf="http://www.w3.org/1999/02/22-rdf-syntax-ns#"
   xmlns:svg="http://www.w3.org/2000/svg"
   xmlns="http://www.w3.org/2000/svg"
   xmlns:xlink="http://www.w3.org/1999/xlink"
   xmlns:sodipodi="http://sodipodi.sourceforge.net/DTD/sodipodi-0.dtd"
   xmlns:inkscape="http://www.inkscape.org/namespaces/inkscape"
   sodipodi:docname="thumbnail.svg"
   inkscape:version="1.0 (4035a4fb49, 2020-05-01)"
   id="svg8"
   version="1.1"
   viewBox="0 0 33.866666 33.866668"
   height="128"
   width="128"
   inkscape:export-filename="C:\Users\Matthias\AppData\Roaming\Factorio\mods\jump-and-swing_0.1.0\graphics\thumbnail.png"
   inkscape:export-xdpi="270.00003"
   inkscape:export-ydpi="270.00003">
  <defs
     id="defs2">
    <linearGradient
       id="linearGradient872"
       inkscape:collect="always">
      <stop
         id="stop868"
         offset="0"
         style="stop-color:#ffffff;stop-opacity:0.09477124" />
      <stop
         id="stop870"
         offset="1"
         style="stop-color:#ffffff;stop-opacity:0;" />
    </linearGradient>
    <marker
       inkscape:stockid="Arrow1Lstart"
       orient="auto"
       refY="0"
       refX="0"
       id="marker1199"
       style="overflow:visible"
       inkscape:isstock="true">
      <path
         id="path1197"
         d="M 0,0 5,-5 -12.5,0 5,5 Z"
         style="fill:#000000;fill-opacity:1;fill-rule:evenodd;stroke:#000000;stroke-width:1pt;stroke-opacity:1"
         transform="matrix(0.8,0,0,0.8,10,0)" />
    </marker>
    <marker
       inkscape:stockid="Arrow1Lstart"
       orient="auto"
       refY="0"
       refX="0"
       id="marker1189"
       style="overflow:visible"
       inkscape:isstock="true">
      <path
         id="path1187"
         d="M 0,0 5,-5 -12.5,0 5,5 Z"
         style="fill:#000000;fill-opacity:1;fill-rule:evenodd;stroke:#000000;stroke-width:1pt;stroke-opacity:1"
         transform="matrix(0.8,0,0,0.8,10,0)" />
    </marker>
    <marker
       inkscape:stockid="Arrow1Lstart"
       orient="auto"
       refY="0"
       refX="0"
       id="marker1179"
       style="overflow:visible"
       inkscape:isstock="true">
      <path
         id="path1177"
         d="M 0,0 5,-5 -12.5,0 5,5 Z"
         style="fill:#000000;fill-opacity:1;fill-rule:evenodd;stroke:#000000;stroke-width:1pt;stroke-opacity:1"
         transform="matrix(0.8,0,0,0.8,10,0)" />
    </marker>
    <radialGradient
       gradientUnits="userSpaceOnUse"
       r="16.83798"
       fy="16.904797"
       fx="16.904797"
       cy="16.904797"
       cx="16.904797"
       id="radialGradient874"
       xlink:href="#linearGradient872"
       inkscape:collect="always" />
  </defs>
  <sodipodi:namedview
     inkscape:window-maximized="0"
     inkscape:window-y="0"
     inkscape:window-x="186"
     inkscape:window-height="1040"
     inkscape:window-width="1375"
     showgrid="false"
     inkscape:document-rotation="0"
     inkscape:current-layer="layer1"
     inkscape:document-units="mm"
     inkscape:cy="85.341635"
     inkscape:cx="66.735757"
     inkscape:zoom="3.959798"
     inkscape:pageshadow="2"
     inkscape:pageopacity="0.0"
     borderopacity="1.0"
     bordercolor="#666666"
     pagecolor="#ffffff"
     id="base"
     units="px" />
  <metadata
     id="metadata5">
    <rdf:RDF>
      <cc:Work
         rdf:about="">
        <dc:format>image/svg+xml</dc:format>
        <dc:type
           rdf:resource="http://purl.org/dc/dcmitype/StillImage" />
        <dc:title></dc:title>
      </cc:Work>
    </rdf:RDF>
  </metadata>
  <g
     id="layer1"
     inkscape:groupmode="layer"
     inkscape:label="Layer 1">
    <circle
       r="16.83798"
       cy="16.904797"
       cx="16.904797"
       id="path866"
       style="fill:url(#radialGradient874);stroke-width:0.3;stroke-linecap:round;stroke-linejoin:round;stroke-dasharray:0.3, 3.60000000000000009;fill-opacity:1" />
    <path
       sodipodi:nodetypes="cccccccccccc"
       id="path887"
       d="m 26.606875,12.45637 -0.320546,-3.4166232 -0.351831,-3.7500777 1.903168,-0.6513823 1.329378,0.065908 -1.891692,-1.2972537 -3.599522,1.336161 0.191436,1.2541001 1.250213,-0.3931723 0.325395,3.6501548 0.31748,3.5613703 c 0.289307,0.04646 0.579251,0.107705 0.846521,-0.359185 z"
       style="fill:#000000;fill-opacity:1;stroke:none;stroke-width:0.047259px;stroke-linecap:butt;stroke-linejoin:miter;stroke-opacity:1" />
    <circle
       transform="rotate(5.6284732)"
       r="2.9377546"
       cy="8.6090546"
       cx="19.584719"
       id="path863"
       style="fill:#000000;stroke-width:0.0431795;stroke-linecap:round;stroke-linejoin:round;stroke-dasharray:0.0431795, 0.518155" />
    <path
       sodipodi:nodetypes="cccssscccccccc"
       transform="scale(0.26458333)"
       d="m 77.197266,83.277344 0.126953,12.423828 -8.066407,2.089844 c -0.310099,0.984195 -0.71672,1.950933 -1.333984,2.824214 -0.74598,1.05541 -1.824016,1.71999 -2.78125,2.30469 -1.462095,0.89309 -3.053811,1.33275 -4.453125,1.93946 -2.139767,0.92775 -4.280111,1.85534 -6.419922,2.7832 1.267172,1.52519 3.708985,2.90039 3.708985,2.90039 l 14.333984,-4.18164 11.208984,-3.77344 c 0,0 1.623943,-0.96002 2.03711,-1.75586 0.301829,-0.58419 0.662109,-2.070311 0.662109,-2.070311 l 0.714844,-14.146485 z"
       style="fill:#000000;fill-opacity:1;stroke:none;stroke-width:0.229149px;stroke-linecap:butt;stroke-linejoin:miter;stroke-opacity:1"
       id="path869" />
    <path
       sodipodi:nodetypes="csssssssccc"
       id="path871"
       d="m 16.741775,15.283036 c 0,0 -1.825277,-0.965331 -2.868168,-1.520429 -1.280005,-0.681307 -1.553783,-0.676201 -2.98453,-0.911904 -0.356374,-0.05871 -0.70435,-0.01228 -1.0816908,-0.06308 C 9.432953,12.737193 9.2000264,12.493957 9.2007486,11.931798 9.201459,11.38672 9.5240447,11.145497 9.882592,11.141416 c 0.564925,-0.0065 1.13004,0.01911 1.688493,0.149517 1.162381,0.271411 1.141571,0.4123 2.320814,0.865378 0.59336,0.227979 2.443234,1.257914 2.443234,1.257914 l 0.240485,0.63953 z"
       style="fill:#000000;fill-opacity:1;stroke:none;stroke-width:0.060629px;stroke-linecap:butt;stroke-linejoin:miter;stroke-opacity:1" />
    <path
       sodipodi:nodetypes="ccsssccc"
       id="path875"
       d="m 21.886805,14.672303 5.156103,-3.380497 c 0,0 0.511939,-0.189181 0.583113,-0.417371 0.106372,-0.341012 -0.0657,-0.809467 -0.362306,-1.0085478 -0.253448,-0.1701182 -0.628121,-0.064707 -0.914867,0.039944 -0.184325,0.067273 -0.46638,0.3591648 -0.46638,0.3591648 l -4.507527,2.788465 z"
       style="fill:#000000;fill-opacity:1;stroke:none;stroke-width:0.060629px;stroke-linecap:butt;stroke-linejoin:miter;stroke-opacity:1" />
    <path
       sodipodi:nodetypes="ccccscssssssscc"
       transform="scale(0.26458333)"
       d="m 61.893865,81.820087 -3.59699,13.244366 -8.277344,3.896485 -6.314453,2.974612 c -1.191674,0.56116 -2.361933,0.74538 -2.964844,1.35156 -0.786255,0.79053 -1.405553,1.9317 -1.384765,2.91211 0.02447,1.16248 0.787261,2.4698 1.738281,3.31445 0.785155,0.69734 1.956724,1.14913 2.986328,1.12305 1.172746,-0.0297 2.366269,-1.0795 3.908203,-1.74805 4.054296,-1.75784 8.107814,-3.51559 12.16211,-5.27344 1.514362,-0.65658 3.039049,-1.08921 4.287109,-1.85156 0.941563,-0.57512 1.840626,-1.17009 2.378906,-1.931639 0.96384,-1.363612 1.395897,-3.167555 1.78125,-4.970703 0.886961,-4.150269 2.150107,-11.663297 2.316406,-12.646484 z"
       style="color:#000000;font-style:normal;font-variant:normal;font-weight:normal;font-stretch:normal;font-size:medium;line-height:normal;font-family:sans-serif;font-variant-ligatures:normal;font-variant-position:normal;font-variant-caps:normal;font-variant-numeric:normal;font-variant-alternates:normal;font-variant-east-asian:normal;font-feature-settings:normal;font-variation-settings:normal;text-indent:0;text-align:start;text-decoration:none;text-decoration-line:none;text-decoration-style:solid;text-decoration-color:#000000;letter-spacing:normal;word-spacing:normal;text-transform:none;writing-mode:lr-tb;direction:ltr;text-orientation:mixed;dominant-baseline:auto;baseline-shift:baseline;text-anchor:start;white-space:normal;shape-padding:0;shape-margin:0;inline-size:0;clip-rule:nonzero;display:inline;overflow:visible;visibility:visible;isolation:auto;mix-blend-mode:normal;color-interpolation:sRGB;color-interpolation-filters:linearRGB;solid-color:#000000;solid-opacity:1;vector-effect:none;fill:#000000;fill-opacity:1;fill-rule:nonzero;stroke:none;stroke-width:1.35541;stroke-linecap:butt;stroke-linejoin:miter;stroke-miterlimit:4;stroke-dasharray:none;stroke-dashoffset:0;stroke-opacity:1;color-rendering:auto;image-rendering:auto;shape-rendering:auto;text-rendering:auto;enable-background:accumulate;stop-color:#000000"
       id="path883" />
    <path
       sodipodi:nodetypes="csccscc"
       id="path861"
       d="m 16.335133,13.414217 c 0,0 0.646765,3.66255 0.560073,5.342576 -0.04782,0.926629 -0.519121,2.891438 -0.519121,2.891438 l 6.625418,0.739492 c 0,0 -0.08158,-3.393911 -0.383046,-5.057465 -0.264736,-1.460842 -1.243516,-4.276798 -1.243516,-4.276798 -1.323445,0.496973 -2.203794,1.050538 -5.039808,0.360757 z"
       style="fill:#000000;fill-opacity:1;stroke:none;stroke-width:0.0641368px;stroke-linecap:butt;stroke-linejoin:miter;stroke-opacity:1" />
    <path
       sodipodi:nodetypes="cccccccc"
       id="path899"
       d="M 23.867266,5.9972022 23.474868,5.7230937 23.304347,4.434408 l 3.761679,-1.3498387 1.8102,1.2576382 0.290818,0.3619873 -1.329378,-0.065908 z"
       style="fill:#000000;fill-opacity:1;stroke:none;stroke-width:0.060629px;stroke-linecap:butt;stroke-linejoin:miter;stroke-opacity:1" />
    <path
       sodipodi:nodetypes="cscccccc"
       inkscape:transform-center-y="-1.2667854"
       inkscape:transform-center-x="0.24874452"
       d="M 19.198331,6.8991571 C 17.397881,6.6012285 15.665959,7.7207079 15.198293,9.4847 c -0.160537,0.605537 -0.157524,1.242826 0.0088,1.846815 L 18.783094,10.323036 21.91203,9.0883264 C 21.498304,8.0438476 20.613432,7.2577094 19.527502,6.9698908 19.418963,6.9411097 19.309113,6.9175073 19.198329,6.8991662 Z"
       style="fill:#000000;stroke-width:0.0520357;stroke-linecap:round;stroke-linejoin:round;stroke-dasharray:0.0520357, 0.62443"
       id="circle1303" />
    <path
       sodipodi:nodetypes="csc"
       id="path1317"
       d="m 12.868245,16.402765 c 0,0 -3.7363819,3.355899 -5.2057947,5.573264 -1.5826857,2.388293 -3.7359233,8.941718 -3.7359233,8.941718"
       style="fill:none;stroke:#000000;stroke-width:0.266959;stroke-linecap:round;stroke-linejoin:miter;stroke-miterlimit:4;stroke-dasharray:none;stroke-opacity:1" />
    <path
       sodipodi:nodetypes="csc"
       id="path1319"
       d="m 12.745756,18.30135 c 0,0 -2.8540546,3.027879 -3.8584129,4.838326 -1.2806742,2.308531 -2.6947642,6.369443 -2.6947642,6.369443"
       style="fill:none;stroke:#000000;stroke-width:0.266959;stroke-linecap:round;stroke-linejoin:miter;stroke-miterlimit:4;stroke-dasharray:none;stroke-opacity:1" />
    <path
       sodipodi:nodetypes="csc"
       id="path1321"
       d="m 10.112236,17.137702 c 0,0 -2.9627082,2.735822 -4.1033908,4.593347 -1.3683011,2.22819 -2.4497861,5.389532 -2.4497861,5.389532"
       style="fill:none;stroke:#000000;stroke-width:0.266959;stroke-linecap:round;stroke-linejoin:miter;stroke-miterlimit:4;stroke-dasharray:none;stroke-opacity:1" />
  </g>
</svg>
