<?xml version="1.0" encoding="UTF-8" standalone="no"?>
<svg
   xmlns:dc="http://purl.org/dc/elements/1.1/"
   xmlns:cc="http://creativecommons.org/ns#"
   xmlns:rdf="http://www.w3.org/1999/02/22-rdf-syntax-ns#"
   xmlns:svg="http://www.w3.org/2000/svg"
   xmlns="http://www.w3.org/2000/svg"
   xmlns:sodipodi="http://sodipodi.sourceforge.net/DTD/sodipodi-0.dtd"
   xmlns:inkscape="http://www.inkscape.org/namespaces/inkscape"
   sodipodi:docname="tmp.svg"
   inkscape:version="1.0 (4035a4fb49, 2020-05-01)"
   id="svg8"
   version="1.1"
   viewBox="0 0 33.866666 33.866668"
   height="128"
   width="128"
   inkscape:export-filename="C:\Users\Matthias\AppData\Roaming\Factorio\mods\jump-and-swing_0.1.0\graphics\source\hook-icon.png"
   inkscape:export-xdpi="192"
   inkscape:export-ydpi="192">
  <defs
     id="defs2">
    <marker
       inkscape:stockid="Arrow1Lstart"
       orient="auto"
       refY="0"
       refX="0"
       id="marker1199"
       style="overflow:visible"
       inkscape:isstock="true">
      <path
         id="path1197"
         d="M 0,0 5,-5 -12.5,0 5,5 Z"
         style="fill:#000000;fill-opacity:1;fill-rule:evenodd;stroke:#000000;stroke-width:1pt;stroke-opacity:1"
         transform="matrix(0.8,0,0,0.8,10,0)" />
    </marker>
    <marker
       inkscape:stockid="Arrow1Lstart"
       orient="auto"
       refY="0"
       refX="0"
       id="marker1189"
       style="overflow:visible"
       inkscape:isstock="true">
      <path
         id="path1187"
         d="M 0,0 5,-5 -12.5,0 5,5 Z"
         style="fill:#000000;fill-opacity:1;fill-rule:evenodd;stroke:#000000;stroke-width:1pt;stroke-opacity:1"
         transform="matrix(0.8,0,0,0.8,10,0)" />
    </marker>
    <marker
       inkscape:stockid="Arrow1Lstart"
       orient="auto"
       refY="0"
       refX="0"
       id="marker1179"
       style="overflow:visible"
       inkscape:isstock="true">
      <path
         id="path1177"
         d="M 0,0 5,-5 -12.5,0 5,5 Z"
         style="fill:#000000;fill-opacity:1;fill-rule:evenodd;stroke:#000000;stroke-width:1pt;stroke-opacity:1"
         transform="matrix(0.8,0,0,0.8,10,0)" />
    </marker>
  </defs>
  <sodipodi:namedview
     showguides="false"
     inkscape:window-maximized="0"
     inkscape:window-y="0"
     inkscape:window-x="186"
     inkscape:window-height="1040"
     inkscape:window-width="1375"
     showgrid="false"
     inkscape:document-rotation="0"
     inkscape:current-layer="layer1"
     inkscape:document-units="mm"
     inkscape:cy="63.509365"
     inkscape:cx="82.114931"
     inkscape:zoom="3.959798"
     inkscape:pageshadow="2"
     inkscape:pageopacity="0.0"
     borderopacity="1.0"
     bordercolor="#666666"
     pagecolor="#ffffff"
     id="base"
     units="px" />
  <metadata
     id="metadata5">
    <rdf:RDF>
      <cc:Work
         rdf:about="">
        <dc:format>image/svg+xml</dc:format>
        <dc:type
           rdf:resource="http://purl.org/dc/dcmitype/StillImage" />
        <dc:title></dc:title>
      </cc:Work>
    </rdf:RDF>
  </metadata>
  <g
     id="layer1"
     inkscape:groupmode="layer"
     inkscape:label="Layer 1">
    <circle
       transform="rotate(5.6284732)"
       r="2.9377546"
       cy="9.0844355"
       cx="19.578405"
       id="path863"
       style="fill:#000000;stroke-width:0.0431795;stroke-linecap:round;stroke-linejoin:round;stroke-dasharray:0.0431795, 0.518155" />
    <path
       sodipodi:nodetypes="cccssscccccccc"
       d="m 20.372201,22.506267 0.03359,3.287138 -2.134237,0.552938 c -0.08205,0.260401 -0.189632,0.516184 -0.35295,0.74724 -0.197374,0.279243 -0.482604,0.45508 -0.735872,0.609782 -0.386846,0.236297 -0.807988,0.352624 -1.178223,0.513149 -0.566147,0.245467 -1.132446,0.490892 -1.698604,0.736388 0.335272,0.40354 0.981335,0.767395 0.981335,0.767395 l 3.792534,-1.106392 2.96571,-0.998389 c 0,0 0.429668,-0.254006 0.538986,-0.464572 0.07986,-0.154567 0.175183,-0.54777 0.175183,-0.54777 l 0.189135,-3.742924 z"
       style="fill:#000000;fill-opacity:1;stroke:none;stroke-width:0.060629px;stroke-linecap:butt;stroke-linejoin:miter;stroke-opacity:1"
       id="path869" />
    <path
       sodipodi:nodetypes="ccccscssssssscc"
       d="m 16.323175,22.120701 -0.951703,3.504239 -2.190047,1.030945 -1.670699,0.787032 c -0.315297,0.148474 -0.624928,0.197215 -0.784449,0.357601 -0.20803,0.209161 -0.371885,0.511095 -0.366385,0.770495 0.0065,0.307573 0.208296,0.653468 0.45992,0.876948 0.207739,0.184505 0.517716,0.304041 0.790132,0.297141 0.310289,-0.0079 0.626076,-0.285618 1.034046,-0.462505 1.072699,-0.465095 2.145192,-0.930167 3.217891,-1.395264 0.400675,-0.173721 0.804082,-0.288187 1.134298,-0.489892 0.249122,-0.152167 0.486999,-0.309587 0.629419,-0.51108 0.255016,-0.360789 0.369331,-0.838082 0.471289,-1.315165 0.234675,-1.098092 0.568883,-3.085914 0.612882,-3.346049 z"
       style="color:#000000;font-style:normal;font-variant:normal;font-weight:normal;font-stretch:normal;font-size:medium;line-height:normal;font-family:sans-serif;font-variant-ligatures:normal;font-variant-position:normal;font-variant-caps:normal;font-variant-numeric:normal;font-variant-alternates:normal;font-variant-east-asian:normal;font-feature-settings:normal;font-variation-settings:normal;text-indent:0;text-align:start;text-decoration:none;text-decoration-line:none;text-decoration-style:solid;text-decoration-color:#000000;letter-spacing:normal;word-spacing:normal;text-transform:none;writing-mode:lr-tb;direction:ltr;text-orientation:mixed;dominant-baseline:auto;baseline-shift:baseline;text-anchor:start;white-space:normal;shape-padding:0;shape-margin:0;inline-size:0;clip-rule:nonzero;display:inline;overflow:visible;visibility:visible;isolation:auto;mix-blend-mode:normal;color-interpolation:sRGB;color-interpolation-filters:linearRGB;solid-color:#000000;solid-opacity:1;vector-effect:none;fill:#000000;fill-opacity:1;fill-rule:nonzero;stroke:none;stroke-width:0.358619;stroke-linecap:butt;stroke-linejoin:miter;stroke-miterlimit:4;stroke-dasharray:none;stroke-dashoffset:0;stroke-opacity:1;color-rendering:auto;image-rendering:auto;shape-rendering:auto;text-rendering:auto;enable-background:accumulate;stop-color:#000000"
       id="path883" />
    <path
       sodipodi:nodetypes="csccscc"
       id="path861"
       d="m 16.282224,13.886687 c 0,0 0.646765,3.66255 0.560073,5.342576 -0.04782,0.926629 -0.519121,2.891438 -0.519121,2.891438 l 6.625418,0.739492 c 0,0 -0.08158,-3.393911 -0.383046,-5.057465 -0.264736,-1.460842 -1.243516,-4.276798 -1.243516,-4.276798 -1.323445,0.496973 -2.203794,1.050538 -5.039808,0.360757 z"
       style="fill:#000000;fill-opacity:1;stroke:none;stroke-width:0.0641368px;stroke-linecap:butt;stroke-linejoin:miter;stroke-opacity:1" />
    <path
       sodipodi:nodetypes="cscccccc"
       inkscape:transform-center-y="-1.2667854"
       inkscape:transform-center-x="0.24874452"
       d="m 19.145422,7.3716274 c -1.80045,-0.2979286 -3.532372,0.8215508 -4.000038,2.5855429 -0.160537,0.6055367 -0.157524,1.2428257 0.0088,1.8468147 l 3.576001,-1.008479 3.128936,-1.2347093 C 21.445395,8.5163179 20.560523,7.7301797 19.474593,7.4423611 19.366054,7.41358 19.256204,7.3899776 19.14542,7.3716365 Z"
       style="fill:#000000;stroke-width:0.0520357;stroke-linecap:round;stroke-linejoin:round;stroke-dasharray:0.0520357, 0.62443"
       id="circle1303" />
    <path
       sodipodi:nodetypes="csc"
       id="path1317"
       d="m -1.8056366,19.134504 c 0,0 3.7013761,0.927676 5.592221,0.987357 2.036607,0.06428 6.4094456,-0.971556 6.4094456,-0.971556"
       style="fill:none;stroke:#000000;stroke-width:0.180501;stroke-linecap:round;stroke-linejoin:miter;stroke-miterlimit:4;stroke-dasharray:none;stroke-opacity:1" />
    <path
       sodipodi:nodetypes="csc"
       id="path1319"
       d="m -1.0913466,18.30337 c 0,0 3.0525111,0.55071 4.487885,0.491262 1.830272,-0.0758 4.584263,-0.673488 4.584263,-0.673488"
       style="fill:none;stroke:#000000;stroke-width:0.180501;stroke-linecap:round;stroke-linejoin:miter;stroke-miterlimit:4;stroke-dasharray:none;stroke-opacity:1" />
    <path
       sodipodi:nodetypes="csc"
       id="path1321"
       d="m 0.08069644,20.410451 c 0,0 2.97122296,0.710154 4.50510396,0.710174 1.839964,2.2e-5 3.973147,-0.47598 3.973147,-0.47598"
       style="fill:none;stroke:#000000;stroke-width:0.180501;stroke-linecap:round;stroke-linejoin:miter;stroke-miterlimit:4;stroke-dasharray:none;stroke-opacity:1" />
    <path
       id="rect886"
       style="opacity:1;fill:#000000;fill-opacity:1;stroke:none;stroke-width:0.323605;stroke-linecap:round;stroke-linejoin:round;stroke-dasharray:0.323605, 3.88327"
       d="m 16.289674,18.079923 h 6.726996 l 0.100924,2.047975 -6.82792,0.04079 z"
       sodipodi:nodetypes="ccccc" />
    <path
       sodipodi:nodetypes="ccccc"
       d="M 22.82838,19.619204 C 30.863168,18.342731 36.342265,14.932776 42.277325,9.79239 V 8.7364874 C 33.830502,15.024712 30.596801,17.220009 22.82838,18.563301 Z"
       style="opacity:1;fill:#000000;fill-opacity:1;stroke:none;stroke-width:0.380764;stroke-linecap:round;stroke-linejoin:round;stroke-dasharray:0.380764, 4.56918"
       id="rect888" />
    <path
       sodipodi:nodetypes="sscccssssccccs"
       id="path868"
       d="m 21.322032,13.525931 c 0.174852,-0.120836 0.40202,0.148602 0.580173,0.264515 1.370032,0.891402 3.667389,3.254922 3.667389,3.254922 l 0.298151,0.247042 0.806248,0.618365 c 0,0 0.164951,0.15758 0.231261,0.25116 0.108217,0.152719 0.188683,0.327506 0.141318,0.508587 -0.06556,0.250635 -0.252132,0.425331 -0.497349,0.508903 -0.163442,0.0557 -0.347126,-0.01445 -0.507762,-0.07779 -0.108646,-0.04284 -0.283969,-0.182898 -0.283969,-0.182898 l -1.59064,-1.248351 -0.241602,-0.175707 -2.492462,-2.303151 c 0,0 -0.568508,-1.349255 -0.110756,-1.665597 z"
       style="fill:#000000;fill-opacity:1;stroke:none;stroke-width:0.264583px;stroke-linecap:butt;stroke-linejoin:miter;stroke-opacity:1" />
    <path
       sodipodi:nodetypes="sssscccsssscccs"
       id="path870"
       d="m 16.282224,13.886687 c -0.198968,-0.005 -0.428058,0.03247 -0.572589,0.169302 -0.217156,0.205596 -0.349817,0.550091 -0.301007,0.845123 0.0512,0.309509 0.288915,0.554477 0.501807,0.784899 0.255145,0.276154 0.763598,0.781215 0.763598,0.781215 l 3.367777,2.351142 4.573464,0.714282 c 0,0 0.315619,0.04533 0.470317,0.01912 0.13327,-0.02258 0.279381,-0.05566 0.377137,-0.149006 0.116199,-0.110964 0.195197,-0.279002 0.197586,-0.439655 0.0026,-0.171904 -0.07812,-0.352655 -0.197341,-0.476523 C 25.312879,18.330644 24.87299,18.215412 24.87299,18.215412 L 20.657436,17.40468 18.780691,14.764694 c 0,0 -1.615997,-0.855742 -2.498467,-0.878007 z"
       style="fill:#000000;fill-opacity:1;stroke:none;stroke-width:0.264583px;stroke-linecap:butt;stroke-linejoin:miter;stroke-opacity:1" />
    <g
       transform="matrix(0.454654,-0.89066814,-0.89066814,-0.454654,24.892379,42.693922)"
       id="g886">
      <path
         sodipodi:nodetypes="cccccccccccc"
         id="path872"
         d="m 18.804084,15.105346 -2.705543,2.110949 -2.969598,2.316973 0.831881,1.831481 0.960036,0.921911 -2.241652,-0.486171 -1.497569,-3.535416 1.04371,-0.721169 0.571736,1.179294 2.878766,-2.267647 2.808742,-2.212491 c 0.232295,0.178596 0.475778,0.347516 0.319491,0.862286 z"
         style="fill:#000000;fill-opacity:1;stroke:none;stroke-width:0.047259px;stroke-linecap:butt;stroke-linejoin:miter;stroke-opacity:1" />
      <path
         sodipodi:nodetypes="cccccccc"
         id="path874"
         d="m 12.225349,17.543904 -0.46864,-0.0974 -1.054522,0.760113 1.598874,3.66277 2.15692,0.454066 0.462879,-0.03679 -0.960035,-0.92191 z"
         style="fill:#000000;fill-opacity:1;stroke:none;stroke-width:0.060629px;stroke-linecap:butt;stroke-linejoin:miter;stroke-opacity:1" />
    </g>
  </g>
</svg>
